<svg id="visual" viewBox="0 0 1920 1200" width="1920" height="1200" xmlns="http://www.w3.org/2000/svg" xmlns:xlink="http://www.w3.org/1999/xlink" version="1.1"><g stroke-width="1" stroke-linejoin="bevel"><path d="M973 537.8L1057 468.5L968 459.5Z" fill="#aebdc5" stroke="#aebdc5"></path><path d="M973 537.8L1056 541.8L1057 468.5Z" fill="#6f7e87" stroke="#6f7e87"></path><path d="M1057 468.5L1045 368.2L968 459.5Z" fill="#aebdc5" stroke="#aebdc5"></path><path d="M1045 368.2L954 348.2L968 459.5Z" fill="#aebdc5" stroke="#aebdc5"></path><path d="M968 459.5L849 526.8L973 537.8Z" fill="#5b6a74" stroke="#5b6a74"></path><path d="M879 363.2L857 440.5L968 459.5Z" fill="#485761" stroke="#485761"></path><path d="M857 440.5L849 526.8L968 459.5Z" fill="#00101c" stroke="#00101c"></path><path d="M1175 536.8L1165 447.5L1057 468.5Z" fill="#6f7e87" stroke="#6f7e87"></path><path d="M1057 468.5L1165 447.5L1045 368.2Z" fill="#485761" stroke="#485761"></path><path d="M1056 541.8L1175 536.8L1057 468.5Z" fill="#98a8b0" stroke="#98a8b0"></path><path d="M935 672.2L1034 665.2L973 537.8Z" fill="#485761" stroke="#485761"></path><path d="M973 537.8L1034 665.2L1056 541.8Z" fill="#485761" stroke="#485761"></path><path d="M1056 541.8L1141 660.2L1175 536.8Z" fill="#25323d" stroke="#25323d"></path><path d="M954 348.2L879 363.2L968 459.5Z" fill="#485761" stroke="#485761"></path><path d="M867 649.2L935 672.2L973 537.8Z" fill="#aebdc5" stroke="#aebdc5"></path><path d="M1040 257.9L986 301.9L1045 368.2Z" fill="#14212c" stroke="#14212c"></path><path d="M1045 368.2L986 301.9L954 348.2Z" fill="#485761" stroke="#485761"></path><path d="M954 348.2L864 283.9L879 363.2Z" fill="#83929b" stroke="#83929b"></path><path d="M849 526.8L867 649.2L973 537.8Z" fill="#98a8b0" stroke="#98a8b0"></path><path d="M1152 715.5L1141 660.2L1034 665.2Z" fill="#5b6a74" stroke="#5b6a74"></path><path d="M1034 665.2L1141 660.2L1056 541.8Z" fill="#25323d" stroke="#25323d"></path><path d="M1237 452.5L1175 355.2L1165 447.5Z" fill="#83929b" stroke="#83929b"></path><path d="M1165 447.5L1175 355.2L1045 368.2Z" fill="#5b6a74" stroke="#5b6a74"></path><path d="M1263 541.8L1237 452.5L1175 536.8Z" fill="#5b6a74" stroke="#5b6a74"></path><path d="M1175 536.8L1237 452.5L1165 447.5Z" fill="#14212c" stroke="#14212c"></path><path d="M793 388.2L778 448.5L857 440.5Z" fill="#00101c" stroke="#00101c"></path><path d="M857 440.5L778 448.5L849 526.8Z" fill="#c4d3da" stroke="#c4d3da"></path><path d="M849 526.8L755 619.2L867 649.2Z" fill="#83929b" stroke="#83929b"></path><path d="M1168 301.9L1040 257.9L1045 368.2Z" fill="#00101c" stroke="#00101c"></path><path d="M864 283.9L793 388.2L879 363.2Z" fill="#c4d3da" stroke="#c4d3da"></path><path d="M864 283.9L954 348.2L986 301.9Z" fill="#6f7e87" stroke="#6f7e87"></path><path d="M879 363.2L793 388.2L857 440.5Z" fill="#98a8b0" stroke="#98a8b0"></path><path d="M1263 288.9L1168 301.9L1175 355.2Z" fill="#6f7e87" stroke="#6f7e87"></path><path d="M1175 355.2L1168 301.9L1045 368.2Z" fill="#25323d" stroke="#25323d"></path><path d="M1141 660.2L1221 635.2L1175 536.8Z" fill="#98a8b0" stroke="#98a8b0"></path><path d="M889 193.6L864 283.9L986 301.9Z" fill="#485761" stroke="#485761"></path><path d="M1221 635.2L1263 541.8L1175 536.8Z" fill="#6f7e87" stroke="#6f7e87"></path><path d="M1065 764.5L1152 715.5L1034 665.2Z" fill="#5b6a74" stroke="#5b6a74"></path><path d="M1141 660.2L1152 715.5L1221 635.2Z" fill="#83929b" stroke="#83929b"></path><path d="M778 448.5L751 570.8L849 526.8Z" fill="#6f7e87" stroke="#6f7e87"></path><path d="M940 763.5L1034 665.2L935 672.2Z" fill="#00101c" stroke="#00101c"></path><path d="M940 763.5L1065 764.5L1034 665.2Z" fill="#25323d" stroke="#25323d"></path><path d="M882 762.5L935 672.2L867 649.2Z" fill="#6f7e87" stroke="#6f7e87"></path><path d="M882 762.5L940 763.5L935 672.2Z" fill="#36444f" stroke="#36444f"></path><path d="M751 570.8L755 619.2L849 526.8Z" fill="#c4d3da" stroke="#c4d3da"></path><path d="M1335 457.5L1269 373.2L1237 452.5Z" fill="#5b6a74" stroke="#5b6a74"></path><path d="M1237 452.5L1269 373.2L1175 355.2Z" fill="#c4d3da" stroke="#c4d3da"></path><path d="M779 725.5L882 762.5L867 649.2Z" fill="#00101c" stroke="#00101c"></path><path d="M647 358.2L691 487.5L778 448.5Z" fill="#6f7e87" stroke="#6f7e87"></path><path d="M778 448.5L691 487.5L751 570.8Z" fill="#6f7e87" stroke="#6f7e87"></path><path d="M751 570.8L696 573.8L755 619.2Z" fill="#485761" stroke="#485761"></path><path d="M647 358.2L778 448.5L793 388.2Z" fill="#5b6a74" stroke="#5b6a74"></path><path d="M691 487.5L696 573.8L751 570.8Z" fill="#98a8b0" stroke="#98a8b0"></path><path d="M755 619.2L779 725.5L867 649.2Z" fill="#00101c" stroke="#00101c"></path><path d="M679 722.5L779 725.5L755 619.2Z" fill="#14212c" stroke="#14212c"></path><path d="M941 161.6L986 301.9L1040 257.9Z" fill="#83929b" stroke="#83929b"></path><path d="M941 161.6L889 193.6L986 301.9Z" fill="#c4d3da" stroke="#c4d3da"></path><path d="M864 283.9L757 268.9L793 388.2Z" fill="#14212c" stroke="#14212c"></path><path d="M1269 373.2L1263 288.9L1175 355.2Z" fill="#00101c" stroke="#00101c"></path><path d="M1129 174.6L1044 165.6L1040 257.9Z" fill="#83929b" stroke="#83929b"></path><path d="M1355 548.8L1335 457.5L1263 541.8Z" fill="#aebdc5" stroke="#aebdc5"></path><path d="M1263 541.8L1335 457.5L1237 452.5Z" fill="#00101c" stroke="#00101c"></path><path d="M1269 373.2L1342 372.2L1263 288.9Z" fill="#14212c" stroke="#14212c"></path><path d="M845 815.8L940 763.5L882 762.5Z" fill="#36444f" stroke="#36444f"></path><path d="M845 815.8L981 823.8L940 763.5Z" fill="#5b6a74" stroke="#5b6a74"></path><path d="M940 763.5L981 823.8L1065 764.5Z" fill="#6f7e87" stroke="#6f7e87"></path><path d="M1163 826.8L1233 737.5L1152 715.5Z" fill="#c4d3da" stroke="#c4d3da"></path><path d="M1163 826.8L1152 715.5L1065 764.5Z" fill="#00101c" stroke="#00101c"></path><path d="M1152 715.5L1233 737.5L1221 635.2Z" fill="#5b6a74" stroke="#5b6a74"></path><path d="M1355 643.2L1355 548.8L1263 541.8Z" fill="#98a8b0" stroke="#98a8b0"></path><path d="M1129 174.6L1040 257.9L1168 301.9Z" fill="#14212c" stroke="#14212c"></path><path d="M776 178.6L757 268.9L864 283.9Z" fill="#c4d3da" stroke="#c4d3da"></path><path d="M1044 165.6L941 161.6L1040 257.9Z" fill="#485761" stroke="#485761"></path><path d="M889 193.6L776 178.6L864 283.9Z" fill="#485761" stroke="#485761"></path><path d="M1245 186.6L1129 174.6L1168 301.9Z" fill="#5b6a74" stroke="#5b6a74"></path><path d="M981 823.8L1067 835.8L1065 764.5Z" fill="#14212c" stroke="#14212c"></path><path d="M1355 643.2L1263 541.8L1221 635.2Z" fill="#485761" stroke="#485761"></path><path d="M1445 459.5L1342 372.2L1335 457.5Z" fill="#00101c" stroke="#00101c"></path><path d="M1335 457.5L1342 372.2L1269 373.2Z" fill="#485761" stroke="#485761"></path><path d="M779 725.5L845 815.8L882 762.5Z" fill="#6f7e87" stroke="#6f7e87"></path><path d="M981 823.8L1035 931.1L1067 835.8Z" fill="#c4d3da" stroke="#c4d3da"></path><path d="M1067 835.8L1163 826.8L1065 764.5Z" fill="#25323d" stroke="#25323d"></path><path d="M1357 726.5L1355 643.2L1233 737.5Z" fill="#36444f" stroke="#36444f"></path><path d="M1233 737.5L1355 643.2L1221 635.2Z" fill="#36444f" stroke="#36444f"></path><path d="M757 268.9L647 358.2L793 388.2Z" fill="#36444f" stroke="#36444f"></path><path d="M586 622.2L646 661.2L696 573.8Z" fill="#14212c" stroke="#14212c"></path><path d="M1360 250.9L1245 186.6L1263 288.9Z" fill="#36444f" stroke="#36444f"></path><path d="M1263 288.9L1245 186.6L1168 301.9Z" fill="#485761" stroke="#485761"></path><path d="M1037 81.3L986 91.3L1044 165.6Z" fill="#36444f" stroke="#36444f"></path><path d="M779 94.3L776 178.6L889 193.6Z" fill="#83929b" stroke="#83929b"></path><path d="M757 268.9L654 297.9L647 358.2Z" fill="#36444f" stroke="#36444f"></path><path d="M1163 826.8L1244 816.8L1233 737.5Z" fill="#485761" stroke="#485761"></path><path d="M589 470.5L696 573.8L691 487.5Z" fill="#14212c" stroke="#14212c"></path><path d="M696 573.8L646 661.2L755 619.2Z" fill="#5b6a74" stroke="#5b6a74"></path><path d="M779 725.5L741 812.8L845 815.8Z" fill="#25323d" stroke="#25323d"></path><path d="M646 661.2L679 722.5L755 619.2Z" fill="#5b6a74" stroke="#5b6a74"></path><path d="M1037 81.3L1044 165.6L1127 66.3Z" fill="#36444f" stroke="#36444f"></path><path d="M1044 165.6L986 91.3L941 161.6Z" fill="#485761" stroke="#485761"></path><path d="M941 161.6L875 72.3L889 193.6Z" fill="#14212c" stroke="#14212c"></path><path d="M683 194.6L654 297.9L757 268.9Z" fill="#83929b" stroke="#83929b"></path><path d="M679 722.5L741 812.8L779 725.5Z" fill="#5b6a74" stroke="#5b6a74"></path><path d="M957 930.1L1035 931.1L981 823.8Z" fill="#83929b" stroke="#83929b"></path><path d="M1127 66.3L1044 165.6L1129 174.6Z" fill="#00101c" stroke="#00101c"></path><path d="M1244 816.8L1357 726.5L1233 737.5Z" fill="#83929b" stroke="#83929b"></path><path d="M1444 578.8L1445 459.5L1355 548.8Z" fill="#6f7e87" stroke="#6f7e87"></path><path d="M579 346.2L589 470.5L647 358.2Z" fill="#83929b" stroke="#83929b"></path><path d="M647 358.2L589 470.5L691 487.5Z" fill="#14212c" stroke="#14212c"></path><path d="M1452 349.2L1360 250.9L1342 372.2Z" fill="#14212c" stroke="#14212c"></path><path d="M1342 372.2L1360 250.9L1263 288.9Z" fill="#00101c" stroke="#00101c"></path><path d="M1445 459.5L1335 457.5L1355 548.8Z" fill="#25323d" stroke="#25323d"></path><path d="M957 930.1L981 823.8L845 815.8Z" fill="#485761" stroke="#485761"></path><path d="M1067 835.8L1142 920.1L1163 826.8Z" fill="#c4d3da" stroke="#c4d3da"></path><path d="M1163 826.8L1237 943.1L1244 816.8Z" fill="#c4d3da" stroke="#c4d3da"></path><path d="M853 934.1L957 930.1L845 815.8Z" fill="#36444f" stroke="#36444f"></path><path d="M1444 578.8L1355 548.8L1355 643.2Z" fill="#36444f" stroke="#36444f"></path><path d="M646 661.2L552 736.5L679 722.5Z" fill="#14212c" stroke="#14212c"></path><path d="M688 848.8L769 908.1L741 812.8Z" fill="#25323d" stroke="#25323d"></path><path d="M549 570.8L586 622.2L696 573.8Z" fill="#5b6a74" stroke="#5b6a74"></path><path d="M1451 649.2L1444 578.8L1355 643.2Z" fill="#00101c" stroke="#00101c"></path><path d="M1035 931.1L1142 920.1L1067 835.8Z" fill="#83929b" stroke="#83929b"></path><path d="M1244 816.8L1354 821.8L1357 726.5Z" fill="#14212c" stroke="#14212c"></path><path d="M698 76.3L683 194.6L776 178.6Z" fill="#5b6a74" stroke="#5b6a74"></path><path d="M776 178.6L683 194.6L757 268.9Z" fill="#5b6a74" stroke="#5b6a74"></path><path d="M654 297.9L579 346.2L647 358.2Z" fill="#c4d3da" stroke="#c4d3da"></path><path d="M970 0L875 72.3L986 91.3Z" fill="#83929b" stroke="#83929b"></path><path d="M986 91.3L875 72.3L941 161.6Z" fill="#5b6a74" stroke="#5b6a74"></path><path d="M1256 103.3L1129 174.6L1245 186.6Z" fill="#c4d3da" stroke="#c4d3da"></path><path d="M1256 103.3L1127 66.3L1129 174.6Z" fill="#00101c" stroke="#00101c"></path><path d="M1037 81.3L970 0L986 91.3Z" fill="#98a8b0" stroke="#98a8b0"></path><path d="M594 278.9L579 346.2L654 297.9Z" fill="#c4d3da" stroke="#c4d3da"></path><path d="M589 470.5L549 570.8L696 573.8Z" fill="#6f7e87" stroke="#6f7e87"></path><path d="M1425 172.6L1361 199.6L1360 250.9Z" fill="#aebdc5" stroke="#aebdc5"></path><path d="M1360 250.9L1361 199.6L1245 186.6Z" fill="#c4d3da" stroke="#c4d3da"></path><path d="M875 72.3L779 94.3L889 193.6Z" fill="#36444f" stroke="#36444f"></path><path d="M1326 92.3L1256 103.3L1245 186.6Z" fill="#5b6a74" stroke="#5b6a74"></path><path d="M769 908.1L853 934.1L845 815.8Z" fill="#aebdc5" stroke="#aebdc5"></path><path d="M957 930.1L981 1014.4L1035 931.1Z" fill="#98a8b0" stroke="#98a8b0"></path><path d="M499 481.5L549 570.8L589 470.5Z" fill="#25323d" stroke="#25323d"></path><path d="M1513 390.2L1452 349.2L1445 459.5Z" fill="#98a8b0" stroke="#98a8b0"></path><path d="M1445 459.5L1452 349.2L1342 372.2Z" fill="#98a8b0" stroke="#98a8b0"></path><path d="M1436 717.5L1355 643.2L1357 726.5Z" fill="#aebdc5" stroke="#aebdc5"></path><path d="M1436 717.5L1451 649.2L1355 643.2Z" fill="#14212c" stroke="#14212c"></path><path d="M1444 578.8L1522 536.8L1445 459.5Z" fill="#14212c" stroke="#14212c"></path><path d="M683 194.6L594 278.9L654 297.9Z" fill="#00101c" stroke="#00101c"></path><path d="M495 290.9L594 278.9L559 173.6Z" fill="#aebdc5" stroke="#aebdc5"></path><path d="M1321 921.1L1354 821.8L1244 816.8Z" fill="#36444f" stroke="#36444f"></path><path d="M688 848.8L741 812.8L679 722.5Z" fill="#00101c" stroke="#00101c"></path><path d="M741 812.8L769 908.1L845 815.8Z" fill="#aebdc5" stroke="#aebdc5"></path><path d="M688 848.8L679 722.5L575 811.8Z" fill="#83929b" stroke="#83929b"></path><path d="M552 736.5L646 661.2L586 622.2Z" fill="#5b6a74" stroke="#5b6a74"></path><path d="M1354 821.8L1436 717.5L1357 726.5Z" fill="#25323d" stroke="#25323d"></path><path d="M1531 256.9L1455 284.9L1452 349.2Z" fill="#25323d" stroke="#25323d"></path><path d="M1452 349.2L1455 284.9L1360 250.9Z" fill="#00101c" stroke="#00101c"></path><path d="M1361 199.6L1326 92.3L1245 186.6Z" fill="#aebdc5" stroke="#aebdc5"></path><path d="M1064 0L1037 81.3L1127 66.3Z" fill="#aebdc5" stroke="#aebdc5"></path><path d="M1064 0L970 0L1037 81.3Z" fill="#36444f" stroke="#36444f"></path><path d="M875 72.3L883 0L779 94.3Z" fill="#83929b" stroke="#83929b"></path><path d="M1148 0L1064 0L1127 66.3Z" fill="#00101c" stroke="#00101c"></path><path d="M1142 920.1L1237 943.1L1163 826.8Z" fill="#c4d3da" stroke="#c4d3da"></path><path d="M1173 1002.4L1237 943.1L1142 920.1Z" fill="#aebdc5" stroke="#aebdc5"></path><path d="M1173 1002.4L1142 920.1L1059 1026.4Z" fill="#c4d3da" stroke="#c4d3da"></path><path d="M488 354.2L589 470.5L579 346.2Z" fill="#00101c" stroke="#00101c"></path><path d="M488 354.2L499 481.5L589 470.5Z" fill="#5b6a74" stroke="#5b6a74"></path><path d="M475 663.2L552 736.5L586 622.2Z" fill="#5b6a74" stroke="#5b6a74"></path><path d="M970 0L883 0L875 72.3Z" fill="#5b6a74" stroke="#5b6a74"></path><path d="M1425 172.6L1326 92.3L1361 199.6Z" fill="#5b6a74" stroke="#5b6a74"></path><path d="M1235 0L1148 0L1127 66.3Z" fill="#485761" stroke="#485761"></path><path d="M1515 645.2L1444 578.8L1451 649.2Z" fill="#98a8b0" stroke="#98a8b0"></path><path d="M1515 645.2L1522 536.8L1444 578.8Z" fill="#aebdc5" stroke="#aebdc5"></path><path d="M1530 451.5L1513 390.2L1445 459.5Z" fill="#98a8b0" stroke="#98a8b0"></path><path d="M1235 0L1127 66.3L1256 103.3Z" fill="#00101c" stroke="#00101c"></path><path d="M475 663.2L586 622.2L549 570.8Z" fill="#25323d" stroke="#25323d"></path><path d="M871 1010.4L957 930.1L853 934.1Z" fill="#5b6a74" stroke="#5b6a74"></path><path d="M871 1010.4L981 1014.4L957 930.1Z" fill="#485761" stroke="#485761"></path><path d="M1522 536.8L1530 451.5L1445 459.5Z" fill="#5b6a74" stroke="#5b6a74"></path><path d="M743 0L698 76.3L779 94.3Z" fill="#25323d" stroke="#25323d"></path><path d="M779 94.3L698 76.3L776 178.6Z" fill="#00101c" stroke="#00101c"></path><path d="M499 481.5L488 540.8L549 570.8Z" fill="#14212c" stroke="#14212c"></path><path d="M1523 190.6L1425 172.6L1455 284.9Z" fill="#5b6a74" stroke="#5b6a74"></path><path d="M1455 284.9L1425 172.6L1360 250.9Z" fill="#00101c" stroke="#00101c"></path><path d="M1260 1014.4L1321 921.1L1237 943.1Z" fill="#25323d" stroke="#25323d"></path><path d="M1237 943.1L1321 921.1L1244 816.8Z" fill="#485761" stroke="#485761"></path><path d="M1354 821.8L1434 835.8L1436 717.5Z" fill="#aebdc5" stroke="#aebdc5"></path><path d="M1555 737.5L1515 645.2L1436 717.5Z" fill="#00101c" stroke="#00101c"></path><path d="M1436 717.5L1515 645.2L1451 649.2Z" fill="#25323d" stroke="#25323d"></path><path d="M1522 536.8L1606 482.5L1530 451.5Z" fill="#aebdc5" stroke="#aebdc5"></path><path d="M1059 1026.4L1142 920.1L1035 931.1Z" fill="#c4d3da" stroke="#c4d3da"></path><path d="M772 996.4L853 934.1L769 908.1Z" fill="#98a8b0" stroke="#98a8b0"></path><path d="M772 996.4L871 1010.4L853 934.1Z" fill="#00101c" stroke="#00101c"></path><path d="M772 996.4L769 908.1L658 937.1Z" fill="#14212c" stroke="#14212c"></path><path d="M965 1083.7L1059 1026.4L981 1014.4Z" fill="#c4d3da" stroke="#c4d3da"></path><path d="M981 1014.4L1059 1026.4L1035 931.1Z" fill="#25323d" stroke="#25323d"></path><path d="M501 834.8L575 811.8L552 736.5Z" fill="#c4d3da" stroke="#c4d3da"></path><path d="M552 736.5L575 811.8L679 722.5Z" fill="#c4d3da" stroke="#c4d3da"></path><path d="M495 290.9L488 354.2L579 346.2Z" fill="#00101c" stroke="#00101c"></path><path d="M499 481.5L402 464.5L488 540.8Z" fill="#83929b" stroke="#83929b"></path><path d="M495 290.9L579 346.2L594 278.9Z" fill="#98a8b0" stroke="#98a8b0"></path><path d="M1437 910.1L1434 835.8L1354 821.8Z" fill="#98a8b0" stroke="#98a8b0"></path><path d="M1326 92.3L1235 0L1256 103.3Z" fill="#485761" stroke="#485761"></path><path d="M1361 0L1235 0L1326 92.3Z" fill="#5b6a74" stroke="#5b6a74"></path><path d="M658 937.1L769 908.1L688 848.8Z" fill="#c4d3da" stroke="#c4d3da"></path><path d="M559 173.6L594 278.9L683 194.6Z" fill="#36444f" stroke="#36444f"></path><path d="M597 108.3L559 173.6L683 194.6Z" fill="#36444f" stroke="#36444f"></path><path d="M488 540.8L475 663.2L549 570.8Z" fill="#25323d" stroke="#25323d"></path><path d="M457 736.5L475 663.2L402 654.2Z" fill="#83929b" stroke="#83929b"></path><path d="M883 0L743 0L779 94.3Z" fill="#5b6a74" stroke="#5b6a74"></path><path d="M698 76.3L597 108.3L683 194.6Z" fill="#c4d3da" stroke="#c4d3da"></path><path d="M592 903.1L688 848.8L575 811.8Z" fill="#14212c" stroke="#14212c"></path><path d="M592 903.1L658 937.1L688 848.8Z" fill="#36444f" stroke="#36444f"></path><path d="M656 0L597 108.3L698 76.3Z" fill="#5b6a74" stroke="#5b6a74"></path><path d="M1513 390.2L1531 256.9L1452 349.2Z" fill="#aebdc5" stroke="#aebdc5"></path><path d="M1425 172.6L1431 87.3L1326 92.3Z" fill="#aebdc5" stroke="#aebdc5"></path><path d="M1605 290.9L1531 256.9L1513 390.2Z" fill="#14212c" stroke="#14212c"></path><path d="M1226 1088.7L1260 1014.4L1173 1002.4Z" fill="#aebdc5" stroke="#aebdc5"></path><path d="M1173 1002.4L1260 1014.4L1237 943.1Z" fill="#98a8b0" stroke="#98a8b0"></path><path d="M1321 921.1L1437 910.1L1354 821.8Z" fill="#aebdc5" stroke="#aebdc5"></path><path d="M501 834.8L592 903.1L575 811.8Z" fill="#14212c" stroke="#14212c"></path><path d="M759 1087.7L871 1010.4L772 996.4Z" fill="#00101c" stroke="#00101c"></path><path d="M1523 190.6L1431 87.3L1425 172.6Z" fill="#98a8b0" stroke="#98a8b0"></path><path d="M871 1010.4L965 1083.7L981 1014.4Z" fill="#6f7e87" stroke="#6f7e87"></path><path d="M1059 1026.4L1143 1103.7L1173 1002.4Z" fill="#83929b" stroke="#83929b"></path><path d="M882 1097.7L965 1083.7L871 1010.4Z" fill="#6f7e87" stroke="#6f7e87"></path><path d="M1415 1006.4L1437 910.1L1321 921.1Z" fill="#14212c" stroke="#14212c"></path><path d="M1522 829.8L1555 737.5L1436 717.5Z" fill="#98a8b0" stroke="#98a8b0"></path><path d="M1522 829.8L1436 717.5L1434 835.8Z" fill="#5b6a74" stroke="#5b6a74"></path><path d="M1633 572.8L1606 482.5L1522 536.8Z" fill="#aebdc5" stroke="#aebdc5"></path><path d="M1530 451.5L1634 367.2L1513 390.2Z" fill="#485761" stroke="#485761"></path><path d="M1633 572.8L1522 536.8L1515 645.2Z" fill="#aebdc5" stroke="#aebdc5"></path><path d="M1607 210.6L1523 190.6L1531 256.9Z" fill="#6f7e87" stroke="#6f7e87"></path><path d="M1531 256.9L1523 190.6L1455 284.9Z" fill="#25323d" stroke="#25323d"></path><path d="M1260 1014.4L1336 1001.4L1321 921.1Z" fill="#5b6a74" stroke="#5b6a74"></path><path d="M1321 1120.7L1336 1001.4L1260 1014.4Z" fill="#c4d3da" stroke="#c4d3da"></path><path d="M486 104.3L497 180.6L559 173.6Z" fill="#6f7e87" stroke="#6f7e87"></path><path d="M559 173.6L497 180.6L495 290.9Z" fill="#00101c" stroke="#00101c"></path><path d="M391 379.2L402 464.5L488 354.2Z" fill="#aebdc5" stroke="#aebdc5"></path><path d="M486 104.3L559 173.6L597 108.3Z" fill="#36444f" stroke="#36444f"></path><path d="M404 554.8L475 663.2L488 540.8Z" fill="#14212c" stroke="#14212c"></path><path d="M475 663.2L457 736.5L552 736.5Z" fill="#00101c" stroke="#00101c"></path><path d="M402 464.5L499 481.5L488 354.2Z" fill="#98a8b0" stroke="#98a8b0"></path><path d="M391 379.2L488 354.2L389 276.9Z" fill="#00101c" stroke="#00101c"></path><path d="M402 464.5L404 554.8L488 540.8Z" fill="#98a8b0" stroke="#98a8b0"></path><path d="M1457 0L1361 0L1431 87.3Z" fill="#5b6a74" stroke="#5b6a74"></path><path d="M1431 87.3L1361 0L1326 92.3Z" fill="#83929b" stroke="#83929b"></path><path d="M743 0L656 0L698 76.3Z" fill="#14212c" stroke="#14212c"></path><path d="M457 736.5L501 834.8L552 736.5Z" fill="#98a8b0" stroke="#98a8b0"></path><path d="M1513 898.1L1522 829.8L1434 835.8Z" fill="#6f7e87" stroke="#6f7e87"></path><path d="M677 1035.4L772 996.4L658 937.1Z" fill="#6f7e87" stroke="#6f7e87"></path><path d="M759 1087.7L882 1097.7L871 1010.4Z" fill="#98a8b0" stroke="#98a8b0"></path><path d="M1609 725.5L1606 670.2L1555 737.5Z" fill="#36444f" stroke="#36444f"></path><path d="M1555 737.5L1606 670.2L1515 645.2Z" fill="#14212c" stroke="#14212c"></path><path d="M1055 1118.7L1059 1026.4L965 1083.7Z" fill="#aebdc5" stroke="#aebdc5"></path><path d="M1055 1118.7L1143 1103.7L1059 1026.4Z" fill="#14212c" stroke="#14212c"></path><path d="M1062 1200L1055 1118.7L953 1200Z" fill="#c4d3da" stroke="#c4d3da"></path><path d="M379 728.5L402 654.2L302 642.2Z" fill="#5b6a74" stroke="#5b6a74"></path><path d="M404 554.8L402 654.2L475 663.2Z" fill="#83929b" stroke="#83929b"></path><path d="M405 905.1L500 911.1L501 834.8Z" fill="#00101c" stroke="#00101c"></path><path d="M1606 670.2L1633 572.8L1515 645.2Z" fill="#5b6a74" stroke="#5b6a74"></path><path d="M1634 367.2L1605 290.9L1513 390.2Z" fill="#c4d3da" stroke="#c4d3da"></path><path d="M389 276.9L488 354.2L495 290.9Z" fill="#36444f" stroke="#36444f"></path><path d="M302 642.2L402 654.2L404 554.8Z" fill="#98a8b0" stroke="#98a8b0"></path><path d="M1634 367.2L1530 451.5L1606 482.5Z" fill="#aebdc5" stroke="#aebdc5"></path><path d="M1143 1103.7L1226 1088.7L1173 1002.4Z" fill="#aebdc5" stroke="#aebdc5"></path><path d="M580 989.4L658 937.1L592 903.1Z" fill="#14212c" stroke="#14212c"></path><path d="M580 989.4L677 1035.4L658 937.1Z" fill="#aebdc5" stroke="#aebdc5"></path><path d="M1711 438.5L1634 367.2L1606 482.5Z" fill="#aebdc5" stroke="#aebdc5"></path><path d="M1618 856.8L1609 725.5L1555 737.5Z" fill="#485761" stroke="#485761"></path><path d="M1606 670.2L1726 657.2L1633 572.8Z" fill="#485761" stroke="#485761"></path><path d="M677 1035.4L759 1087.7L772 996.4Z" fill="#aebdc5" stroke="#aebdc5"></path><path d="M953 1200L1055 1118.7L965 1083.7Z" fill="#14212c" stroke="#14212c"></path><path d="M1437 910.1L1513 898.1L1434 835.8Z" fill="#83929b" stroke="#83929b"></path><path d="M1522 829.8L1618 856.8L1555 737.5Z" fill="#c4d3da" stroke="#c4d3da"></path><path d="M1415 1006.4L1513 898.1L1437 910.1Z" fill="#aebdc5" stroke="#aebdc5"></path><path d="M1415 1006.4L1321 921.1L1336 1001.4Z" fill="#36444f" stroke="#36444f"></path><path d="M1321 1120.7L1415 1006.4L1336 1001.4Z" fill="#36444f" stroke="#36444f"></path><path d="M549 0L486 104.3L597 108.3Z" fill="#5b6a74" stroke="#5b6a74"></path><path d="M400 201.6L389 276.9L495 290.9Z" fill="#83929b" stroke="#83929b"></path><path d="M500 911.1L580 989.4L592 903.1Z" fill="#98a8b0" stroke="#98a8b0"></path><path d="M677 1035.4L682 1097.7L759 1087.7Z" fill="#c4d3da" stroke="#c4d3da"></path><path d="M500 911.1L592 903.1L501 834.8Z" fill="#98a8b0" stroke="#98a8b0"></path><path d="M402 815.8L501 834.8L457 736.5Z" fill="#485761" stroke="#485761"></path><path d="M400 201.6L495 290.9L497 180.6Z" fill="#00101c" stroke="#00101c"></path><path d="M1710 203.6L1607 210.6L1605 290.9Z" fill="#25323d" stroke="#25323d"></path><path d="M1605 290.9L1607 210.6L1531 256.9Z" fill="#14212c" stroke="#14212c"></path><path d="M1524 65.3L1457 0L1431 87.3Z" fill="#14212c" stroke="#14212c"></path><path d="M1524 65.3L1431 87.3L1523 190.6Z" fill="#14212c" stroke="#14212c"></path><path d="M1610 96.3L1524 65.3L1523 190.6Z" fill="#00101c" stroke="#00101c"></path><path d="M272 538.8L404 554.8L402 464.5Z" fill="#98a8b0" stroke="#98a8b0"></path><path d="M402 654.2L379 728.5L457 736.5Z" fill="#36444f" stroke="#36444f"></path><path d="M297 384.2L402 464.5L391 379.2Z" fill="#25323d" stroke="#25323d"></path><path d="M404 109.3L400 201.6L497 180.6Z" fill="#36444f" stroke="#36444f"></path><path d="M656 0L549 0L597 108.3Z" fill="#485761" stroke="#485761"></path><path d="M486 104.3L404 109.3L497 180.6Z" fill="#36444f" stroke="#36444f"></path><path d="M578 1081.7L677 1035.4L580 989.4Z" fill="#c4d3da" stroke="#c4d3da"></path><path d="M578 1081.7L682 1097.7L677 1035.4Z" fill="#83929b" stroke="#83929b"></path><path d="M953 1200L965 1083.7L882 1097.7Z" fill="#36444f" stroke="#36444f"></path><path d="M379 728.5L402 815.8L457 736.5Z" fill="#98a8b0" stroke="#98a8b0"></path><path d="M476 1035.4L578 1081.7L580 989.4Z" fill="#c4d3da" stroke="#c4d3da"></path><path d="M1274 1200L1321 1120.7L1226 1088.7Z" fill="#5b6a74" stroke="#5b6a74"></path><path d="M1226 1088.7L1321 1120.7L1260 1014.4Z" fill="#25323d" stroke="#25323d"></path><path d="M1628 948.1L1618 856.8L1513 898.1Z" fill="#5b6a74" stroke="#5b6a74"></path><path d="M1176 1200L1226 1088.7L1143 1103.7Z" fill="#c4d3da" stroke="#c4d3da"></path><path d="M1633 572.8L1711 438.5L1606 482.5Z" fill="#00101c" stroke="#00101c"></path><path d="M1634 367.2L1730 344.2L1605 290.9Z" fill="#98a8b0" stroke="#98a8b0"></path><path d="M1744 565.8L1711 438.5L1633 572.8Z" fill="#00101c" stroke="#00101c"></path><path d="M953 1200L882 1097.7L886 1200Z" fill="#c4d3da" stroke="#c4d3da"></path><path d="M1055 1118.7L1062 1200L1143 1103.7Z" fill="#485761" stroke="#485761"></path><path d="M886 1200L882 1097.7L770 1200Z" fill="#98a8b0" stroke="#98a8b0"></path><path d="M1513 898.1L1618 856.8L1522 829.8Z" fill="#5b6a74" stroke="#5b6a74"></path><path d="M1609 725.5L1726 657.2L1606 670.2Z" fill="#14212c" stroke="#14212c"></path><path d="M1552 1021.4L1513 898.1L1415 1006.4Z" fill="#5b6a74" stroke="#5b6a74"></path><path d="M770 1200L882 1097.7L759 1087.7Z" fill="#485761" stroke="#485761"></path><path d="M407 0L404 109.3L486 104.3Z" fill="#aebdc5" stroke="#aebdc5"></path><path d="M275 271.9L297 384.2L389 276.9Z" fill="#aebdc5" stroke="#aebdc5"></path><path d="M275 271.9L389 276.9L286 209.6Z" fill="#83929b" stroke="#83929b"></path><path d="M389 276.9L297 384.2L391 379.2Z" fill="#6f7e87" stroke="#6f7e87"></path><path d="M1710 203.6L1610 96.3L1607 210.6Z" fill="#98a8b0" stroke="#98a8b0"></path><path d="M1607 210.6L1610 96.3L1523 190.6Z" fill="#36444f" stroke="#36444f"></path><path d="M1524 65.3L1536 0L1457 0Z" fill="#aebdc5" stroke="#aebdc5"></path><path d="M272 538.8L302 642.2L404 554.8Z" fill="#6f7e87" stroke="#6f7e87"></path><path d="M379 728.5L278 737.5L402 815.8Z" fill="#98a8b0" stroke="#98a8b0"></path><path d="M1062 1200L1176 1200L1143 1103.7Z" fill="#6f7e87" stroke="#6f7e87"></path><path d="M1610 96.3L1536 0L1524 65.3Z" fill="#36444f" stroke="#36444f"></path><path d="M549 0L479 0L486 104.3Z" fill="#485761" stroke="#485761"></path><path d="M476 1035.4L580 989.4L500 911.1Z" fill="#6f7e87" stroke="#6f7e87"></path><path d="M682 1097.7L770 1200L759 1087.7Z" fill="#485761" stroke="#485761"></path><path d="M303 908.1L405 905.1L402 815.8Z" fill="#485761" stroke="#485761"></path><path d="M402 815.8L405 905.1L501 834.8Z" fill="#98a8b0" stroke="#98a8b0"></path><path d="M1736 734.5L1726 657.2L1609 725.5Z" fill="#14212c" stroke="#14212c"></path><path d="M1797 370.2L1730 344.2L1711 438.5Z" fill="#5b6a74" stroke="#5b6a74"></path><path d="M1711 438.5L1730 344.2L1634 367.2Z" fill="#6f7e87" stroke="#6f7e87"></path><path d="M1726 657.2L1744 565.8L1633 572.8Z" fill="#36444f" stroke="#36444f"></path><path d="M267 447.5L272 538.8L402 464.5Z" fill="#6f7e87" stroke="#6f7e87"></path><path d="M667 1200L770 1200L682 1097.7Z" fill="#83929b" stroke="#83929b"></path><path d="M211 393.2L267 447.5L297 384.2Z" fill="#83929b" stroke="#83929b"></path><path d="M297 384.2L267 447.5L402 464.5Z" fill="#5b6a74" stroke="#5b6a74"></path><path d="M1176 1200L1274 1200L1226 1088.7Z" fill="#00101c" stroke="#00101c"></path><path d="M1455 1132.7L1552 1021.4L1415 1006.4Z" fill="#aebdc5" stroke="#aebdc5"></path><path d="M1455 1132.7L1415 1006.4L1321 1120.7Z" fill="#5b6a74" stroke="#5b6a74"></path><path d="M1719 853.8L1736 734.5L1609 725.5Z" fill="#25323d" stroke="#25323d"></path><path d="M405 905.1L476 1035.4L500 911.1Z" fill="#6f7e87" stroke="#6f7e87"></path><path d="M578 1081.7L667 1200L682 1097.7Z" fill="#98a8b0" stroke="#98a8b0"></path><path d="M1748 270.9L1710 203.6L1605 290.9Z" fill="#25323d" stroke="#25323d"></path><path d="M1610 96.3L1639 0L1536 0Z" fill="#98a8b0" stroke="#98a8b0"></path><path d="M1719 853.8L1609 725.5L1618 856.8Z" fill="#83929b" stroke="#83929b"></path><path d="M1726 657.2L1821 634.2L1744 565.8Z" fill="#36444f" stroke="#36444f"></path><path d="M1552 1021.4L1628 948.1L1513 898.1Z" fill="#aebdc5" stroke="#aebdc5"></path><path d="M286 209.6L400 201.6L404 109.3Z" fill="#6f7e87" stroke="#6f7e87"></path><path d="M286 209.6L389 276.9L400 201.6Z" fill="#25323d" stroke="#25323d"></path><path d="M302 642.2L278 737.5L379 728.5Z" fill="#98a8b0" stroke="#98a8b0"></path><path d="M379 1084.7L492 1120.7L476 1035.4Z" fill="#aebdc5" stroke="#aebdc5"></path><path d="M179 623.2L278 737.5L302 642.2Z" fill="#5b6a74" stroke="#5b6a74"></path><path d="M179 623.2L302 642.2L272 538.8Z" fill="#83929b" stroke="#83929b"></path><path d="M1730 344.2L1748 270.9L1605 290.9Z" fill="#83929b" stroke="#83929b"></path><path d="M1797 370.2L1748 270.9L1730 344.2Z" fill="#36444f" stroke="#36444f"></path><path d="M1368 1200L1455 1132.7L1321 1120.7Z" fill="#98a8b0" stroke="#98a8b0"></path><path d="M1552 1021.4L1630 1011.4L1628 948.1Z" fill="#36444f" stroke="#36444f"></path><path d="M270 89.3L286 209.6L404 109.3Z" fill="#485761" stroke="#485761"></path><path d="M479 0L407 0L486 104.3Z" fill="#5b6a74" stroke="#5b6a74"></path><path d="M577 1200L667 1200L578 1081.7Z" fill="#6f7e87" stroke="#6f7e87"></path><path d="M1274 1200L1368 1200L1321 1120.7Z" fill="#98a8b0" stroke="#98a8b0"></path><path d="M1745 934.1L1719 853.8L1628 948.1Z" fill="#25323d" stroke="#25323d"></path><path d="M1628 948.1L1719 853.8L1618 856.8Z" fill="#5b6a74" stroke="#5b6a74"></path><path d="M1845 482.5L1711 438.5L1744 565.8Z" fill="#36444f" stroke="#36444f"></path><path d="M1845 482.5L1797 370.2L1711 438.5Z" fill="#14212c" stroke="#14212c"></path><path d="M1821 634.2L1726 657.2L1736 734.5Z" fill="#14212c" stroke="#14212c"></path><path d="M1613 1124.7L1556 1081.7L1549 1200Z" fill="#36444f" stroke="#36444f"></path><path d="M1455 1132.7L1556 1081.7L1552 1021.4Z" fill="#485761" stroke="#485761"></path><path d="M1734 99.3L1710 203.6L1819 210.6Z" fill="#25323d" stroke="#25323d"></path><path d="M1734 99.3L1610 96.3L1710 203.6Z" fill="#14212c" stroke="#14212c"></path><path d="M1734 99.3L1639 0L1610 96.3Z" fill="#25323d" stroke="#25323d"></path><path d="M275 271.9L211 393.2L297 384.2Z" fill="#36444f" stroke="#36444f"></path><path d="M267 447.5L174 539.8L272 538.8Z" fill="#25323d" stroke="#25323d"></path><path d="M206 259.9L211 393.2L275 271.9Z" fill="#aebdc5" stroke="#aebdc5"></path><path d="M1556 1081.7L1630 1011.4L1552 1021.4Z" fill="#c4d3da" stroke="#c4d3da"></path><path d="M400 1039.4L476 1035.4L405 905.1Z" fill="#6f7e87" stroke="#6f7e87"></path><path d="M476 1035.4L492 1120.7L578 1081.7Z" fill="#83929b" stroke="#83929b"></path><path d="M181 754.5L263 819.8L278 737.5Z" fill="#c4d3da" stroke="#c4d3da"></path><path d="M278 737.5L263 819.8L402 815.8Z" fill="#14212c" stroke="#14212c"></path><path d="M303 908.1L400 1039.4L405 905.1Z" fill="#aebdc5" stroke="#aebdc5"></path><path d="M263 819.8L303 908.1L402 815.8Z" fill="#83929b" stroke="#83929b"></path><path d="M1368 1200L1429 1200L1455 1132.7Z" fill="#98a8b0" stroke="#98a8b0"></path><path d="M1819 745.5L1821 634.2L1736 734.5Z" fill="#25323d" stroke="#25323d"></path><path d="M474 1200L577 1200L492 1120.7Z" fill="#6f7e87" stroke="#6f7e87"></path><path d="M492 1120.7L577 1200L578 1081.7Z" fill="#5b6a74" stroke="#5b6a74"></path><path d="M1819 210.6L1710 203.6L1748 270.9Z" fill="#36444f" stroke="#36444f"></path><path d="M1821 634.2L1836 555.8L1744 565.8Z" fill="#83929b" stroke="#83929b"></path><path d="M1836 555.8L1845 482.5L1744 565.8Z" fill="#c4d3da" stroke="#c4d3da"></path><path d="M1797 370.2L1826 253.9L1748 270.9Z" fill="#14212c" stroke="#14212c"></path><path d="M165 442.5L174 539.8L267 447.5Z" fill="#14212c" stroke="#14212c"></path><path d="M213 180.6L206 259.9L286 209.6Z" fill="#25323d" stroke="#25323d"></path><path d="M286 209.6L206 259.9L275 271.9Z" fill="#5b6a74" stroke="#5b6a74"></path><path d="M211 393.2L165 442.5L267 447.5Z" fill="#5b6a74" stroke="#5b6a74"></path><path d="M174 539.8L179 623.2L272 538.8Z" fill="#c4d3da" stroke="#c4d3da"></path><path d="M288 0L270 89.3L404 109.3Z" fill="#14212c" stroke="#14212c"></path><path d="M107 380.2L165 442.5L211 393.2Z" fill="#83929b" stroke="#83929b"></path><path d="M119 757.5L181 754.5L179 623.2Z" fill="#485761" stroke="#485761"></path><path d="M1849 843.8L1819 745.5L1719 853.8Z" fill="#83929b" stroke="#83929b"></path><path d="M1719 853.8L1819 745.5L1736 734.5Z" fill="#aebdc5" stroke="#aebdc5"></path><path d="M1920 544.8L1845 482.5L1836 555.8Z" fill="#c4d3da" stroke="#c4d3da"></path><path d="M1920 544.8L1920 477.5L1845 482.5Z" fill="#5b6a74" stroke="#5b6a74"></path><path d="M1920 296.9L1826 253.9L1797 370.2Z" fill="#36444f" stroke="#36444f"></path><path d="M1718 1011.4L1745 934.1L1628 948.1Z" fill="#98a8b0" stroke="#98a8b0"></path><path d="M1718 1011.4L1628 948.1L1630 1011.4Z" fill="#5b6a74" stroke="#5b6a74"></path><path d="M1613 1124.7L1630 1011.4L1556 1081.7Z" fill="#c4d3da" stroke="#c4d3da"></path><path d="M270 89.3L213 180.6L286 209.6Z" fill="#14212c" stroke="#14212c"></path><path d="M206 259.9L107 380.2L211 393.2Z" fill="#36444f" stroke="#36444f"></path><path d="M1826 253.9L1819 210.6L1748 270.9Z" fill="#5b6a74" stroke="#5b6a74"></path><path d="M283 1011.4L379 1084.7L400 1039.4Z" fill="#83929b" stroke="#83929b"></path><path d="M400 1039.4L379 1084.7L476 1035.4Z" fill="#00101c" stroke="#00101c"></path><path d="M283 1011.4L400 1039.4L303 908.1Z" fill="#5b6a74" stroke="#5b6a74"></path><path d="M1815 0L1716 0L1734 99.3Z" fill="#6f7e87" stroke="#6f7e87"></path><path d="M1734 99.3L1716 0L1639 0Z" fill="#83929b" stroke="#83929b"></path><path d="M179 623.2L181 754.5L278 737.5Z" fill="#aebdc5" stroke="#aebdc5"></path><path d="M177 939.1L283 1011.4L303 908.1Z" fill="#485761" stroke="#485761"></path><path d="M116 575.8L179 623.2L174 539.8Z" fill="#00101c" stroke="#00101c"></path><path d="M1549 1200L1556 1081.7L1455 1132.7Z" fill="#14212c" stroke="#14212c"></path><path d="M407 0L288 0L404 109.3Z" fill="#aebdc5" stroke="#aebdc5"></path><path d="M270 89.3L174 89.3L213 180.6Z" fill="#485761" stroke="#485761"></path><path d="M1715 1124.7L1718 1011.4L1630 1011.4Z" fill="#5b6a74" stroke="#5b6a74"></path><path d="M1745 934.1L1808 919.1L1719 853.8Z" fill="#5b6a74" stroke="#5b6a74"></path><path d="M379 1084.7L474 1200L492 1120.7Z" fill="#98a8b0" stroke="#98a8b0"></path><path d="M1429 1200L1549 1200L1455 1132.7Z" fill="#83929b" stroke="#83929b"></path><path d="M1613 1124.7L1715 1124.7L1630 1011.4Z" fill="#98a8b0" stroke="#98a8b0"></path><path d="M177 939.1L303 908.1L263 819.8Z" fill="#98a8b0" stroke="#98a8b0"></path><path d="M379 1084.7L359 1200L474 1200Z" fill="#485761" stroke="#485761"></path><path d="M98 455.5L174 539.8L165 442.5Z" fill="#5b6a74" stroke="#5b6a74"></path><path d="M98 455.5L116 575.8L174 539.8Z" fill="#aebdc5" stroke="#aebdc5"></path><path d="M117 804.8L171 823.8L181 754.5Z" fill="#6f7e87" stroke="#6f7e87"></path><path d="M181 754.5L171 823.8L263 819.8Z" fill="#485761" stroke="#485761"></path><path d="M1834 1018.4L1745 934.1L1718 1011.4Z" fill="#98a8b0" stroke="#98a8b0"></path><path d="M1834 1018.4L1808 919.1L1745 934.1Z" fill="#485761" stroke="#485761"></path><path d="M1920 544.8L1836 555.8L1920 666.2Z" fill="#98a8b0" stroke="#98a8b0"></path><path d="M1808 919.1L1849 843.8L1719 853.8Z" fill="#485761" stroke="#485761"></path><path d="M100 283.9L206 259.9L70 177.6Z" fill="#5b6a74" stroke="#5b6a74"></path><path d="M100 283.9L107 380.2L206 259.9Z" fill="#36444f" stroke="#36444f"></path><path d="M1836 555.8L1821 634.2L1920 666.2Z" fill="#5b6a74" stroke="#5b6a74"></path><path d="M1845 482.5L1920 390.2L1797 370.2Z" fill="#36444f" stroke="#36444f"></path><path d="M1920 191.6L1841 104.3L1819 210.6Z" fill="#14212c" stroke="#14212c"></path><path d="M1920 666.2L1821 634.2L1819 745.5Z" fill="#83929b" stroke="#83929b"></path><path d="M107 380.2L98 455.5L165 442.5Z" fill="#6f7e87" stroke="#6f7e87"></path><path d="M1920 477.5L1920 390.2L1845 482.5Z" fill="#83929b" stroke="#83929b"></path><path d="M1819 210.6L1841 104.3L1734 99.3Z" fill="#c4d3da" stroke="#c4d3da"></path><path d="M1920 191.6L1819 210.6L1826 253.9Z" fill="#98a8b0" stroke="#98a8b0"></path><path d="M1920 759.5L1920 666.2L1819 745.5Z" fill="#36444f" stroke="#36444f"></path><path d="M0 538.8L91 621.2L116 575.8Z" fill="#98a8b0" stroke="#98a8b0"></path><path d="M116 575.8L91 621.2L179 623.2Z" fill="#aebdc5" stroke="#aebdc5"></path><path d="M91 621.2L119 757.5L179 623.2Z" fill="#6f7e87" stroke="#6f7e87"></path><path d="M171 823.8L177 939.1L263 819.8Z" fill="#83929b" stroke="#83929b"></path><path d="M197 0L174 89.3L270 89.3Z" fill="#83929b" stroke="#83929b"></path><path d="M1920 390.2L1920 296.9L1797 370.2Z" fill="#c4d3da" stroke="#c4d3da"></path><path d="M0 380.2L0 475.5L98 455.5Z" fill="#6f7e87" stroke="#6f7e87"></path><path d="M98 455.5L0 538.8L116 575.8Z" fill="#14212c" stroke="#14212c"></path><path d="M70 177.6L206 259.9L213 180.6Z" fill="#36444f" stroke="#36444f"></path><path d="M108 913.1L177 939.1L171 823.8Z" fill="#25323d" stroke="#25323d"></path><path d="M283 1011.4L285 1104.7L379 1084.7Z" fill="#00101c" stroke="#00101c"></path><path d="M0 743.5L117 804.8L119 757.5Z" fill="#c4d3da" stroke="#c4d3da"></path><path d="M119 757.5L117 804.8L181 754.5Z" fill="#98a8b0" stroke="#98a8b0"></path><path d="M1642 1200L1715 1124.7L1613 1124.7Z" fill="#5b6a74" stroke="#5b6a74"></path><path d="M1920 850.8L1920 759.5L1849 843.8Z" fill="#c4d3da" stroke="#c4d3da"></path><path d="M218 1100.7L285 1104.7L283 1011.4Z" fill="#25323d" stroke="#25323d"></path><path d="M1920 0L1815 0L1841 104.3Z" fill="#83929b" stroke="#83929b"></path><path d="M1841 104.3L1815 0L1734 99.3Z" fill="#98a8b0" stroke="#98a8b0"></path><path d="M1549 1200L1642 1200L1613 1124.7Z" fill="#485761" stroke="#485761"></path><path d="M1920 850.8L1849 843.8L1920 915.1Z" fill="#5b6a74" stroke="#5b6a74"></path><path d="M1849 843.8L1920 759.5L1819 745.5Z" fill="#00101c" stroke="#00101c"></path><path d="M288 0L197 0L270 89.3Z" fill="#00101c" stroke="#00101c"></path><path d="M174 89.3L70 177.6L213 180.6Z" fill="#25323d" stroke="#25323d"></path><path d="M285 1104.7L359 1200L379 1084.7Z" fill="#14212c" stroke="#14212c"></path><path d="M1920 296.9L1920 191.6L1826 253.9Z" fill="#00101c" stroke="#00101c"></path><path d="M1815 1088.7L1834 1018.4L1718 1011.4Z" fill="#25323d" stroke="#25323d"></path><path d="M1815 1088.7L1718 1011.4L1715 1124.7Z" fill="#98a8b0" stroke="#98a8b0"></path><path d="M1920 915.1L1849 843.8L1808 919.1Z" fill="#5b6a74" stroke="#5b6a74"></path><path d="M81 1023.4L178 1024.4L177 939.1Z" fill="#00101c" stroke="#00101c"></path><path d="M177 939.1L178 1024.4L283 1011.4Z" fill="#25323d" stroke="#25323d"></path><path d="M285 1104.7L280 1200L359 1200Z" fill="#aebdc5" stroke="#aebdc5"></path><path d="M73 115.3L70 177.6L174 89.3Z" fill="#00101c" stroke="#00101c"></path><path d="M0 380.2L98 455.5L107 380.2Z" fill="#485761" stroke="#485761"></path><path d="M0 834.8L108 913.1L117 804.8Z" fill="#c4d3da" stroke="#c4d3da"></path><path d="M117 804.8L108 913.1L171 823.8Z" fill="#36444f" stroke="#36444f"></path><path d="M1920 191.6L1920 95.3L1841 104.3Z" fill="#98a8b0" stroke="#98a8b0"></path><path d="M210 1200L218 1100.7L116 1200Z" fill="#c4d3da" stroke="#c4d3da"></path><path d="M178 1024.4L218 1100.7L283 1011.4Z" fill="#aebdc5" stroke="#aebdc5"></path><path d="M1830 1200L1815 1088.7L1715 1124.7Z" fill="#83929b" stroke="#83929b"></path><path d="M1834 1018.4L1920 915.1L1808 919.1Z" fill="#36444f" stroke="#36444f"></path><path d="M1642 1200L1721 1200L1715 1124.7Z" fill="#98a8b0" stroke="#98a8b0"></path><path d="M1920 1002.4L1920 915.1L1834 1018.4Z" fill="#6f7e87" stroke="#6f7e87"></path><path d="M0 380.2L107 380.2L0 300.9Z" fill="#14212c" stroke="#14212c"></path><path d="M91 621.2L0 663.2L119 757.5Z" fill="#36444f" stroke="#36444f"></path><path d="M0 475.5L0 538.8L98 455.5Z" fill="#83929b" stroke="#83929b"></path><path d="M99 0L73 115.3L174 89.3Z" fill="#c4d3da" stroke="#c4d3da"></path><path d="M0 300.9L107 380.2L100 283.9Z" fill="#6f7e87" stroke="#6f7e87"></path><path d="M218 1100.7L280 1200L285 1104.7Z" fill="#14212c" stroke="#14212c"></path><path d="M0 300.9L100 283.9L0 198.6Z" fill="#14212c" stroke="#14212c"></path><path d="M0 538.8L0 663.2L91 621.2Z" fill="#98a8b0" stroke="#98a8b0"></path><path d="M0 198.6L100 283.9L70 177.6Z" fill="#83929b" stroke="#83929b"></path><path d="M197 0L99 0L174 89.3Z" fill="#6f7e87" stroke="#6f7e87"></path><path d="M73 115.3L0 198.6L70 177.6Z" fill="#83929b" stroke="#83929b"></path><path d="M1920 95.3L1920 0L1841 104.3Z" fill="#00101c" stroke="#00101c"></path><path d="M0 663.2L0 743.5L119 757.5Z" fill="#83929b" stroke="#83929b"></path><path d="M108 913.1L81 1023.4L177 939.1Z" fill="#6f7e87" stroke="#6f7e87"></path><path d="M1920 1097.7L1834 1018.4L1815 1088.7Z" fill="#98a8b0" stroke="#98a8b0"></path><path d="M1920 1097.7L1920 1002.4L1834 1018.4Z" fill="#98a8b0" stroke="#98a8b0"></path><path d="M0 75.3L0 198.6L73 115.3Z" fill="#c4d3da" stroke="#c4d3da"></path><path d="M0 743.5L0 834.8L117 804.8Z" fill="#6f7e87" stroke="#6f7e87"></path><path d="M218 1100.7L210 1200L280 1200Z" fill="#6f7e87" stroke="#6f7e87"></path><path d="M84 1126.7L218 1100.7L178 1024.4Z" fill="#98a8b0" stroke="#98a8b0"></path><path d="M0 988.4L81 1023.4L108 913.1Z" fill="#6f7e87" stroke="#6f7e87"></path><path d="M1721 1200L1830 1200L1715 1124.7Z" fill="#5b6a74" stroke="#5b6a74"></path><path d="M0 834.8L0 908.1L108 913.1Z" fill="#c4d3da" stroke="#c4d3da"></path><path d="M1830 1200L1920 1097.7L1815 1088.7Z" fill="#485761" stroke="#485761"></path><path d="M99 0L0 75.3L73 115.3Z" fill="#c4d3da" stroke="#c4d3da"></path><path d="M0 1106.7L84 1126.7L81 1023.4Z" fill="#5b6a74" stroke="#5b6a74"></path><path d="M81 1023.4L84 1126.7L178 1024.4Z" fill="#25323d" stroke="#25323d"></path><path d="M0 908.1L0 988.4L108 913.1Z" fill="#25323d" stroke="#25323d"></path><path d="M99 0L0 0L0 75.3Z" fill="#14212c" stroke="#14212c"></path><path d="M0 1200L116 1200L84 1126.7Z" fill="#36444f" stroke="#36444f"></path><path d="M84 1126.7L116 1200L218 1100.7Z" fill="#36444f" stroke="#36444f"></path><path d="M1830 1200L1920 1200L1920 1097.7Z" fill="#98a8b0" stroke="#98a8b0"></path><path d="M0 988.4L0 1106.7L81 1023.4Z" fill="#485761" stroke="#485761"></path><path d="M0 1106.7L0 1200L84 1126.7Z" fill="#485761" stroke="#485761"></path></g></svg>